<svg width="1200" height="900" viewBox="0 0 1200 900" fill="none" xmlns="http://www.w3.org/2000/svg">
  <rect width="1200" height="900" fill="#0d0d0d"/>
  <rect x="44" y="44" width="1112" height="812" rx="20" fill="#141414" stroke="#2b2b2b" stroke-width="4"/>
  <rect x="96" y="96" width="1008" height="708" rx="12" fill="url(#bg)"/>
  <rect x="132" y="132" width="240" height="22" rx="11" fill="#6b6b6b" fill-opacity="0.55"/>
  <rect x="132" y="182" width="548" height="210" rx="16" fill="#202020" stroke="#3b3b3b" stroke-width="3"/>
  <rect x="714" y="182" width="258" height="210" rx="16" fill="#1b1b1b" stroke="#3b3b3b" stroke-width="3"/>
  <rect x="132" y="426" width="840" height="146" rx="16" fill="#171717" stroke="#313131" stroke-width="3"/>
  <rect x="132" y="606" width="324" height="126" rx="16" fill="#1d1d1d" stroke="#353535" stroke-width="3"/>
  <rect x="490" y="606" width="206" height="126" rx="16" fill="#252525" stroke="#404040" stroke-width="3"/>
  <rect x="730" y="606" width="242" height="126" rx="16" fill="#1d1d1d" stroke="#353535" stroke-width="3"/>
  <path d="M212 304L364 220L514 304L438 348L364 391L212 304Z" fill="#707070" fill-opacity="0.58"/>
  <circle cx="809" cy="287" r="72" fill="#696969" fill-opacity="0.55"/>
  <path d="M196 681H340" stroke="#7c7c7c" stroke-opacity="0.65" stroke-width="20" stroke-linecap="round"/>
  <path d="M538 681H646" stroke="#8a8a8a" stroke-opacity="0.7" stroke-width="20" stroke-linecap="round"/>
  <path d="M782 681H920" stroke="#7c7c7c" stroke-opacity="0.65" stroke-width="20" stroke-linecap="round"/>
  <path d="M188 477H742" stroke="#7d7d7d" stroke-opacity="0.55" stroke-width="22" stroke-linecap="round"/>
  <path d="M188 523H618" stroke="#595959" stroke-opacity="0.5" stroke-width="18" stroke-linecap="round"/>
  <defs>
    <linearGradient id="bg" x1="96" y1="96" x2="1104" y2="804" gradientUnits="userSpaceOnUse">
      <stop stop-color="#1b1b1b"/>
      <stop offset="1" stop-color="#101010"/>
    </linearGradient>
  </defs>
</svg>
